<svg xmlns="http://www.w3.org/2000/svg" xmlns:xlink="http://www.w3.org/1999/xlink" width="594" zoomAndPan="magnify" viewBox="0 0 445.5 231" height="308" preserveAspectRatio="xMidYMid meet" version="1.0"><defs><g/><clipPath id="c9abc0a6a2"><path d="M 19.476562 17.628906 L 431.378906 17.628906 L 431.378906 24.164062 L 19.476562 24.164062 Z M 19.476562 17.628906 " clip-rule="nonzero"/></clipPath><clipPath id="593119cdb8"><path d="M 19.476562 113.320312 L 431.378906 113.320312 L 431.378906 119.863281 L 19.476562 119.863281 Z M 19.476562 113.320312 " clip-rule="nonzero"/></clipPath><clipPath id="0c45f21845"><path d="M 19.476562 17.628906 L 26.015625 17.628906 L 26.015625 119.769531 L 19.476562 119.769531 Z M 19.476562 17.628906 " clip-rule="nonzero"/></clipPath><clipPath id="f436d9700c"><path d="M 424.835938 17.359375 L 431.375 17.359375 L 431.375 119.503906 L 424.835938 119.503906 Z M 424.835938 17.359375 " clip-rule="nonzero"/></clipPath><clipPath id="9b23faefde"><path d="M 69 17 L 149 17 L 149 121 L 69 121 Z M 69 17 " clip-rule="nonzero"/></clipPath><clipPath id="a1ee0674db"><path d="M 139.429688 17.324219 L 148.84375 24.164062 L 79.097656 120.164062 L 69.679688 113.324219 Z M 139.429688 17.324219 " clip-rule="nonzero"/></clipPath><clipPath id="30511337f0"><path d="M 139.429688 17.324219 L 148.84375 24.164062 L 79.097656 120.164062 L 69.679688 113.324219 Z M 139.429688 17.324219 " clip-rule="nonzero"/></clipPath></defs><g fill="#5f42ff" fill-opacity="1"><g transform="translate(19.478138, 192.631611)"><g><path d="M 0.234375 -8.53125 L 6.609375 -16.53125 C 9.742188 -13.8125 12.757812 -11.820312 15.65625 -10.5625 C 18.550781 -9.3125 21.613281 -8.6875 24.84375 -8.6875 C 28.175781 -8.6875 30.84375 -9.300781 32.84375 -10.53125 C 34.84375 -11.757812 35.84375 -13.398438 35.84375 -15.453125 C 35.84375 -17.304688 35.160156 -18.742188 33.796875 -19.765625 C 32.441406 -20.785156 30.175781 -21.554688 27 -22.078125 L 16.296875 -23.921875 C 11.679688 -24.691406 8.179688 -26.304688 5.796875 -28.765625 C 3.421875 -31.222656 2.234375 -34.398438 2.234375 -38.296875 C 2.234375 -43.328125 4.140625 -47.300781 7.953125 -50.21875 C 11.773438 -53.144531 16.941406 -54.609375 23.453125 -54.609375 C 27.347656 -54.609375 31.28125 -53.941406 35.25 -52.609375 C 39.226562 -51.273438 42.707031 -49.425781 45.6875 -47.0625 L 39.6875 -38.765625 C 36.8125 -40.960938 33.988281 -42.585938 31.21875 -43.640625 C 28.457031 -44.691406 25.613281 -45.21875 22.6875 -45.21875 C 19.71875 -45.21875 17.332031 -44.664062 15.53125 -43.5625 C 13.738281 -42.457031 12.84375 -40.984375 12.84375 -39.140625 C 12.84375 -37.503906 13.429688 -36.222656 14.609375 -35.296875 C 15.785156 -34.378906 17.757812 -33.710938 20.53125 -33.296875 L 30.6875 -31.609375 C 36.019531 -30.734375 40.03125 -29.023438 42.71875 -26.484375 C 45.414062 -23.953125 46.765625 -20.609375 46.765625 -16.453125 C 46.765625 -11.222656 44.695312 -7.046875 40.5625 -3.921875 C 36.4375 -0.796875 30.941406 0.765625 24.078125 0.765625 C 19.765625 0.765625 15.519531 -0.0507812 11.34375 -1.6875 C 7.164062 -3.332031 3.460938 -5.613281 0.234375 -8.53125 Z M 0.234375 -8.53125 "/></g></g></g><g fill="#5f42ff" fill-opacity="1"><g transform="translate(68.082708, 192.631611)"><g><path d="M 51.6875 -23.296875 C 51.6875 -19.660156 51.117188 -16.34375 49.984375 -13.34375 C 48.859375 -10.34375 47.253906 -7.800781 45.171875 -5.71875 C 43.097656 -3.644531 40.585938 -2.046875 37.640625 -0.921875 C 34.691406 0.203125 31.425781 0.765625 27.84375 0.765625 C 24.195312 0.765625 20.898438 0.203125 17.953125 -0.921875 C 15.003906 -2.046875 12.503906 -3.644531 10.453125 -5.71875 C 8.410156 -7.800781 6.820312 -10.328125 5.6875 -13.296875 C 4.5625 -16.273438 4 -19.609375 4 -23.296875 L 4 -53.828125 L 15.15625 -53.828125 L 15.15625 -23.296875 C 15.15625 -19.148438 16.320312 -15.816406 18.65625 -13.296875 C 20.988281 -10.785156 24.078125 -9.53125 27.921875 -9.53125 C 31.765625 -9.53125 34.828125 -10.785156 37.109375 -13.296875 C 39.390625 -15.816406 40.53125 -19.148438 40.53125 -23.296875 L 40.53125 -53.828125 L 51.6875 -53.828125 Z M 51.6875 -23.296875 "/></g></g></g><g fill="#5f42ff" fill-opacity="1"><g transform="translate(123.839521, 192.631611)"><g><path d="M 4.84375 0 L 4.84375 -53.828125 L 31.84375 -53.828125 C 34.457031 -53.828125 36.878906 -53.40625 39.109375 -52.5625 C 41.335938 -51.71875 43.242188 -50.550781 44.828125 -49.0625 C 46.421875 -47.570312 47.664062 -45.789062 48.5625 -43.71875 C 49.457031 -41.644531 49.90625 -39.378906 49.90625 -36.921875 C 49.90625 -34.503906 49.457031 -32.28125 48.5625 -30.25 C 47.664062 -28.226562 46.410156 -26.472656 44.796875 -24.984375 C 43.179688 -23.503906 41.269531 -22.351562 39.0625 -21.53125 C 36.863281 -20.707031 34.457031 -20.296875 31.84375 -20.296875 L 16 -20.296875 L 16 0 Z M 30.609375 -44.21875 L 16 -44.21875 L 16 -29.53125 L 30.609375 -29.53125 C 33.015625 -29.53125 34.945312 -30.195312 36.40625 -31.53125 C 37.875 -32.863281 38.609375 -34.632812 38.609375 -36.84375 C 38.609375 -39.039062 37.875 -40.816406 36.40625 -42.171875 C 34.945312 -43.535156 33.015625 -44.21875 30.609375 -44.21875 Z M 30.609375 -44.21875 "/></g></g></g><g fill="#5f42ff" fill-opacity="1"><g transform="translate(176.212475, 192.631611)"><g><path d="M 4.84375 0 L 4.84375 -53.828125 L 31.84375 -53.828125 C 34.457031 -53.828125 36.878906 -53.40625 39.109375 -52.5625 C 41.335938 -51.71875 43.242188 -50.550781 44.828125 -49.0625 C 46.421875 -47.570312 47.664062 -45.789062 48.5625 -43.71875 C 49.457031 -41.644531 49.90625 -39.378906 49.90625 -36.921875 C 49.90625 -34.503906 49.457031 -32.28125 48.5625 -30.25 C 47.664062 -28.226562 46.410156 -26.472656 44.796875 -24.984375 C 43.179688 -23.503906 41.269531 -22.351562 39.0625 -21.53125 C 36.863281 -20.707031 34.457031 -20.296875 31.84375 -20.296875 L 16 -20.296875 L 16 0 Z M 30.609375 -44.21875 L 16 -44.21875 L 16 -29.53125 L 30.609375 -29.53125 C 33.015625 -29.53125 34.945312 -30.195312 36.40625 -31.53125 C 37.875 -32.863281 38.609375 -34.632812 38.609375 -36.84375 C 38.609375 -39.039062 37.875 -40.816406 36.40625 -42.171875 C 34.945312 -43.535156 33.015625 -44.21875 30.609375 -44.21875 Z M 30.609375 -44.21875 "/></g></g></g><g fill="#5f42ff" fill-opacity="1"><g transform="translate(228.585429, 192.631611)"><g><path d="M 59.75 -26.921875 C 59.75 -23.078125 59.003906 -19.445312 57.515625 -16.03125 C 56.035156 -12.625 54.023438 -9.675781 51.484375 -7.1875 C 48.953125 -4.695312 45.941406 -2.734375 42.453125 -1.296875 C 38.960938 0.128906 35.21875 0.84375 31.21875 0.84375 C 27.269531 0.84375 23.550781 0.128906 20.0625 -1.296875 C 16.582031 -2.734375 13.570312 -4.695312 11.03125 -7.1875 C 8.5 -9.675781 6.488281 -12.625 5 -16.03125 C 3.507812 -19.445312 2.765625 -23.078125 2.765625 -26.921875 C 2.765625 -30.765625 3.507812 -34.390625 5 -37.796875 C 6.488281 -41.203125 8.5 -44.148438 11.03125 -46.640625 C 13.570312 -49.128906 16.582031 -51.09375 20.0625 -52.53125 C 23.550781 -53.96875 27.269531 -54.6875 31.21875 -54.6875 C 35.21875 -54.6875 38.960938 -53.96875 42.453125 -52.53125 C 45.941406 -51.09375 48.953125 -49.128906 51.484375 -46.640625 C 54.023438 -44.148438 56.035156 -41.203125 57.515625 -37.796875 C 59.003906 -34.390625 59.75 -30.765625 59.75 -26.921875 Z M 48.296875 -26.921875 C 48.296875 -29.429688 47.859375 -31.75 46.984375 -33.875 C 46.117188 -36 44.925781 -37.84375 43.40625 -39.40625 C 41.894531 -40.976562 40.085938 -42.210938 37.984375 -43.109375 C 35.890625 -44.003906 33.632812 -44.453125 31.21875 -44.453125 C 28.8125 -44.453125 26.566406 -44.003906 24.484375 -43.109375 C 22.410156 -42.210938 20.617188 -40.976562 19.109375 -39.40625 C 17.597656 -37.84375 16.40625 -36 15.53125 -33.875 C 14.664062 -31.75 14.234375 -29.429688 14.234375 -26.921875 C 14.234375 -24.453125 14.664062 -22.140625 15.53125 -19.984375 C 16.40625 -17.835938 17.597656 -15.984375 19.109375 -14.421875 C 20.617188 -12.859375 22.410156 -11.625 24.484375 -10.71875 C 26.566406 -9.820312 28.8125 -9.375 31.21875 -9.375 C 33.632812 -9.375 35.890625 -9.820312 37.984375 -10.71875 C 40.085938 -11.625 41.894531 -12.859375 43.40625 -14.421875 C 44.925781 -15.984375 46.117188 -17.835938 46.984375 -19.984375 C 47.859375 -22.140625 48.296875 -24.453125 48.296875 -26.921875 Z M 48.296875 -26.921875 "/></g></g></g><g fill="#5f42ff" fill-opacity="1"><g transform="translate(291.109971, 192.631611)"><g><path d="M 4.84375 0 L 4.84375 -53.828125 L 31.140625 -53.828125 C 33.859375 -53.828125 36.359375 -53.414062 38.640625 -52.59375 C 40.921875 -51.78125 42.878906 -50.640625 44.515625 -49.171875 C 46.160156 -47.710938 47.445312 -45.957031 48.375 -43.90625 C 49.300781 -41.863281 49.765625 -39.609375 49.765625 -37.140625 C 49.765625 -33.753906 48.800781 -30.726562 46.875 -28.0625 C 44.945312 -25.40625 42.394531 -23.4375 39.21875 -22.15625 L 51.140625 0 L 38.6875 0 L 28.140625 -20.609375 L 16 -20.609375 L 16 0 Z M 30.140625 -44.21875 L 16 -44.21875 L 16 -29.765625 L 30.140625 -29.765625 C 32.660156 -29.765625 34.675781 -30.429688 36.1875 -31.765625 C 37.695312 -33.097656 38.453125 -34.835938 38.453125 -36.984375 C 38.453125 -39.140625 37.695312 -40.882812 36.1875 -42.21875 C 34.675781 -43.550781 32.660156 -44.21875 30.140625 -44.21875 Z M 30.140625 -44.21875 "/></g></g></g><g fill="#5f42ff" fill-opacity="1"><g transform="translate(343.329117, 192.631611)"><g><path d="M 1.390625 -43.984375 L 1.390625 -53.828125 L 48.765625 -53.828125 L 48.765625 -43.984375 L 30.6875 -43.984375 L 30.6875 0 L 19.53125 0 L 19.53125 -43.984375 Z M 1.390625 -43.984375 "/></g></g></g><g fill="#5f42ff" fill-opacity="1"><g transform="translate(30.35415, 96.897539)"><g><path d="M 5.0625 0 L 5.0625 -56.234375 L 48.28125 -56.234375 L 48.28125 -46.109375 L 16.703125 -46.109375 L 16.703125 -33.25 L 37.515625 -33.25 L 37.515625 -23.453125 L 16.703125 -23.453125 L 16.703125 -10.125 L 48.59375 -10.125 L 48.59375 0 Z M 5.0625 0 "/></g></g></g><g fill="#5f42ff" fill-opacity="1"><g transform="translate(82.162869, 96.897539)"><g><path d="M 13.171875 0 L -0.234375 0 L 21.125 -29.078125 L 0.890625 -56.234375 L 14.78125 -56.234375 L 28.109375 -37.75 L 41.375 -56.234375 L 54.78125 -56.234375 L 34.78125 -29.078125 L 56.46875 0 L 42.578125 0 L 27.875 -20.484375 Z M 13.171875 0 "/></g></g></g><g fill="#5f42ff" fill-opacity="1"><g transform="translate(138.309071, 96.897539)"><g><path d="M 33.171875 -9.953125 C 36.117188 -9.953125 38.878906 -10.566406 41.453125 -11.796875 C 44.023438 -13.035156 46.300781 -14.804688 48.28125 -17.109375 L 55.90625 -9.5625 C 53.226562 -6.394531 49.8125 -3.875 45.65625 -2 C 41.507812 -0.132812 37.242188 0.796875 32.859375 0.796875 C 28.628906 0.796875 24.675781 0.0507812 21 -1.4375 C 17.332031 -2.9375 14.160156 -4.972656 11.484375 -7.546875 C 8.804688 -10.117188 6.703125 -13.171875 5.171875 -16.703125 C 3.648438 -20.242188 2.890625 -24.046875 2.890625 -28.109375 C 2.890625 -32.179688 3.664062 -36 5.21875 -39.5625 C 6.769531 -43.125 8.882812 -46.1875 11.5625 -48.75 C 14.238281 -51.320312 17.410156 -53.359375 21.078125 -54.859375 C 24.753906 -56.359375 28.679688 -57.109375 32.859375 -57.109375 C 37.359375 -57.109375 41.722656 -56.15625 45.953125 -54.25 C 50.179688 -52.351562 53.609375 -49.800781 56.234375 -46.59375 L 48.359375 -38.796875 C 46.378906 -41.265625 44.050781 -43.15625 41.375 -44.46875 C 38.695312 -45.78125 35.859375 -46.4375 32.859375 -46.4375 C 30.335938 -46.4375 27.960938 -45.96875 25.734375 -45.03125 C 23.515625 -44.09375 21.601562 -42.804688 20 -41.171875 C 18.394531 -39.535156 17.132812 -37.601562 16.21875 -35.375 C 15.3125 -33.15625 14.859375 -30.734375 14.859375 -28.109375 C 14.859375 -25.546875 15.328125 -23.148438 16.265625 -20.921875 C 17.203125 -18.703125 18.488281 -16.785156 20.125 -15.171875 C 21.757812 -13.566406 23.6875 -12.296875 25.90625 -11.359375 C 28.125 -10.421875 30.546875 -9.953125 33.171875 -9.953125 Z M 33.171875 -9.953125 "/></g></g></g><g fill="#5f42ff" fill-opacity="1"><g transform="translate(195.981415, 96.897539)"><g><path d="M 5.0625 0 L 5.0625 -56.234375 L 16.703125 -56.234375 L 16.703125 -33.65625 L 42.578125 -33.65625 L 42.578125 -56.234375 L 54.21875 -56.234375 L 54.21875 0 L 42.578125 0 L 42.578125 -22.96875 L 16.703125 -22.96875 L 16.703125 0 Z M 5.0625 0 "/></g></g></g><g fill="#5f42ff" fill-opacity="1"><g transform="translate(255.340553, 96.897539)"><g><path d="M 5.0625 0 L 5.0625 -56.234375 L 32.53125 -56.234375 C 35.375 -56.234375 37.984375 -55.800781 40.359375 -54.9375 C 42.742188 -54.082031 44.789062 -52.890625 46.5 -51.359375 C 48.21875 -49.835938 49.554688 -48.003906 50.515625 -45.859375 C 51.484375 -43.722656 51.96875 -41.367188 51.96875 -38.796875 C 51.96875 -35.265625 50.960938 -32.101562 48.953125 -29.3125 C 46.953125 -26.53125 44.289062 -24.472656 40.96875 -23.140625 L 53.421875 0 L 40.40625 0 L 29.40625 -21.53125 L 16.703125 -21.53125 L 16.703125 0 Z M 31.484375 -46.1875 L 16.703125 -46.1875 L 16.703125 -31.09375 L 31.484375 -31.09375 C 34.109375 -31.09375 36.210938 -31.785156 37.796875 -33.171875 C 39.378906 -34.566406 40.171875 -36.390625 40.171875 -38.640625 C 40.171875 -40.890625 39.378906 -42.707031 37.796875 -44.09375 C 36.210938 -45.488281 34.109375 -46.1875 31.484375 -46.1875 Z M 31.484375 -46.1875 "/></g></g></g><g fill="#5f42ff" fill-opacity="1"><g transform="translate(309.880274, 96.897539)"><g><path d="M 5.0625 0 L 5.0625 -56.234375 L 48.28125 -56.234375 L 48.28125 -46.109375 L 16.703125 -46.109375 L 16.703125 -33.25 L 37.515625 -33.25 L 37.515625 -23.453125 L 16.703125 -23.453125 L 16.703125 -10.125 L 48.59375 -10.125 L 48.59375 0 Z M 5.0625 0 "/></g></g></g><g fill="#5f42ff" fill-opacity="1"><g transform="translate(361.688975, 96.897539)"><g><path d="M -0.328125 0 L 22.8125 -56.234375 L 36.3125 -56.234375 L 59.125 0 L 46.515625 0 L 40.8125 -14.78125 L 17.59375 -14.78125 L 11.8125 0 Z M 21.203125 -24.09375 L 37.265625 -24.09375 L 29.3125 -44.828125 Z M 21.203125 -24.09375 "/></g></g></g><g clip-path="url(#c9abc0a6a2)"><path fill="#5f42ff" d="M 19.476562 17.628906 L 431.378906 17.628906 L 431.378906 24.164062 L 19.476562 24.164062 Z M 19.476562 17.628906 " fill-opacity="1" fill-rule="nonzero"/></g><g clip-path="url(#593119cdb8)"><path fill="#5f42ff" d="M 19.476562 113.320312 L 431.386719 113.320312 L 431.386719 119.863281 L 19.476562 119.863281 Z M 19.476562 113.320312 " fill-opacity="1" fill-rule="nonzero"/></g><g clip-path="url(#0c45f21845)"><path fill="#5f42ff" d="M 19.476562 119.769531 L 19.476562 17.632812 L 26.015625 17.632812 L 26.015625 119.769531 Z M 19.476562 119.769531 " fill-opacity="1" fill-rule="nonzero"/></g><g clip-path="url(#f436d9700c)"><path fill="#5f42ff" d="M 424.835938 119.503906 L 424.835938 17.367188 L 431.375 17.367188 L 431.375 119.503906 Z M 424.835938 119.503906 " fill-opacity="1" fill-rule="nonzero"/></g><g clip-path="url(#9b23faefde)"><g clip-path="url(#a1ee0674db)"><g clip-path="url(#30511337f0)"><path fill="#5f42ff" d="M 139.429688 17.324219 L 148.84375 24.164062 L 79.097656 120.164062 L 69.679688 113.324219 Z M 139.429688 17.324219 " fill-opacity="1" fill-rule="nonzero"/></g></g></g></svg>