<svg xmlns="http://www.w3.org/2000/svg" xmlns:xlink="http://www.w3.org/1999/xlink" width="852" zoomAndPan="magnify" viewBox="0 0 639 198.749996" height="265" preserveAspectRatio="xMidYMid meet" version="1.0"><defs><g/><clipPath id="f0af01eb88"><path d="M 19.875 25.257812 L 619.171875 25.257812 L 619.171875 34.765625 L 19.875 34.765625 Z M 19.875 25.257812 " clip-rule="nonzero"/></clipPath><clipPath id="6361cfb434"><path d="M 19.875 164.484375 L 619.171875 164.484375 L 619.171875 174.003906 L 19.875 174.003906 Z M 19.875 164.484375 " clip-rule="nonzero"/></clipPath><clipPath id="b5e813dd5f"><path d="M 19.875 25.253906 L 29.390625 25.253906 L 29.390625 173.867188 L 19.875 173.867188 Z M 19.875 25.253906 " clip-rule="nonzero"/></clipPath><clipPath id="a7f546e19e"><path d="M 609.652344 24.867188 L 619.167969 24.867188 L 619.167969 173.480469 L 609.652344 173.480469 Z M 609.652344 24.867188 " clip-rule="nonzero"/></clipPath><clipPath id="ec445165ce"><path d="M 92 24 L 209 24 L 209 175 L 92 175 Z M 92 24 " clip-rule="nonzero"/></clipPath><clipPath id="08aa1a522c"><path d="M 194.398438 24.8125 L 208.097656 34.765625 L 106.617188 174.441406 L 92.917969 164.488281 Z M 194.398438 24.8125 " clip-rule="nonzero"/></clipPath><clipPath id="dab2fe92b9"><path d="M 194.398438 24.8125 L 208.097656 34.765625 L 106.621094 174.441406 L 92.917969 164.488281 Z M 194.398438 24.8125 " clip-rule="nonzero"/></clipPath></defs><g fill="#5f42ff" fill-opacity="1"><g transform="translate(35.700937, 140.588773)"><g><path d="M 7.359375 0 L 7.359375 -81.8125 L 70.234375 -81.8125 L 70.234375 -67.09375 L 24.3125 -67.09375 L 24.3125 -48.390625 L 54.578125 -48.390625 L 54.578125 -34.125 L 24.3125 -34.125 L 24.3125 -14.71875 L 70.703125 -14.71875 L 70.703125 0 Z M 7.359375 0 "/></g></g></g><g fill="#5f42ff" fill-opacity="1"><g transform="translate(111.080002, 140.588773)"><g><path d="M 19.171875 0 L -0.34375 0 L 30.734375 -42.3125 L 1.28125 -81.8125 L 21.5 -81.8125 L 40.90625 -54.9375 L 60.1875 -81.8125 L 79.703125 -81.8125 L 50.609375 -42.3125 L 82.15625 0 L 61.9375 0 L 40.5625 -29.796875 Z M 19.171875 0 "/></g></g></g><g fill="#5f42ff" fill-opacity="1"><g transform="translate(192.769886, 140.588773)"><g><path d="M 48.265625 -14.5 C 52.554688 -14.5 56.570312 -15.394531 60.3125 -17.1875 C 64.050781 -18.976562 67.359375 -21.546875 70.234375 -24.890625 L 81.34375 -13.90625 C 77.445312 -9.3125 72.476562 -5.648438 66.4375 -2.921875 C 60.40625 -0.191406 54.191406 1.171875 47.796875 1.171875 C 41.640625 1.171875 35.894531 0.0820312 30.5625 -2.09375 C 25.226562 -4.28125 20.613281 -7.242188 16.71875 -10.984375 C 12.820312 -14.722656 9.757812 -19.164062 7.53125 -24.3125 C 5.3125 -29.457031 4.203125 -34.988281 4.203125 -40.90625 C 4.203125 -46.820312 5.332031 -52.367188 7.59375 -57.546875 C 9.851562 -62.734375 12.929688 -67.195312 16.828125 -70.9375 C 20.722656 -74.675781 25.335938 -77.632812 30.671875 -79.8125 C 36.015625 -82 41.722656 -83.09375 47.796875 -83.09375 C 54.347656 -83.09375 60.695312 -81.707031 66.84375 -78.9375 C 73 -76.175781 77.988281 -72.457031 81.8125 -67.78125 L 70.359375 -56.453125 C 67.472656 -60.035156 64.082031 -62.78125 60.1875 -64.6875 C 56.289062 -66.59375 52.160156 -67.546875 47.796875 -67.546875 C 44.140625 -67.546875 40.691406 -66.863281 37.453125 -65.5 C 34.222656 -64.144531 31.4375 -62.273438 29.09375 -59.890625 C 26.757812 -57.515625 24.929688 -54.710938 23.609375 -51.484375 C 22.285156 -48.253906 21.625 -44.726562 21.625 -40.90625 C 21.625 -37.164062 22.304688 -33.675781 23.671875 -30.4375 C 25.035156 -27.207031 26.90625 -24.421875 29.28125 -22.078125 C 31.65625 -19.742188 34.457031 -17.894531 37.6875 -16.53125 C 40.925781 -15.175781 44.453125 -14.5 48.265625 -14.5 Z M 48.265625 -14.5 "/></g></g></g><g fill="#5f42ff" fill-opacity="1"><g transform="translate(276.68023, 140.588773)"><g><path d="M 7.359375 0 L 7.359375 -81.8125 L 24.3125 -81.8125 L 24.3125 -48.96875 L 61.9375 -48.96875 L 61.9375 -81.8125 L 78.890625 -81.8125 L 78.890625 0 L 61.9375 0 L 61.9375 -33.421875 L 24.3125 -33.421875 L 24.3125 0 Z M 7.359375 0 "/></g></g></g><g fill="#5f42ff" fill-opacity="1"><g transform="translate(363.044774, 140.588773)"><g><path d="M 7.359375 0 L 7.359375 -81.8125 L 47.328125 -81.8125 C 51.460938 -81.8125 55.265625 -81.1875 58.734375 -79.9375 C 62.203125 -78.695312 65.179688 -76.960938 67.671875 -74.734375 C 70.160156 -72.515625 72.109375 -69.847656 73.515625 -66.734375 C 74.921875 -63.617188 75.625 -60.191406 75.625 -56.453125 C 75.625 -51.304688 74.160156 -46.707031 71.234375 -42.65625 C 68.316406 -38.601562 64.441406 -35.601562 59.609375 -33.65625 L 77.71875 0 L 58.78125 0 L 42.78125 -31.328125 L 24.3125 -31.328125 L 24.3125 0 Z M 45.8125 -67.203125 L 24.3125 -67.203125 L 24.3125 -45.234375 L 45.8125 -45.234375 C 49.632812 -45.234375 52.691406 -46.242188 54.984375 -48.265625 C 57.285156 -50.296875 58.4375 -52.945312 58.4375 -56.21875 C 58.4375 -59.488281 57.285156 -62.132812 54.984375 -64.15625 C 52.691406 -66.1875 49.632812 -67.203125 45.8125 -67.203125 Z M 45.8125 -67.203125 "/></g></g></g><g fill="#5f42ff" fill-opacity="1"><g transform="translate(442.397309, 140.588773)"><g><path d="M 7.359375 0 L 7.359375 -81.8125 L 70.234375 -81.8125 L 70.234375 -67.09375 L 24.3125 -67.09375 L 24.3125 -48.390625 L 54.578125 -48.390625 L 54.578125 -34.125 L 24.3125 -34.125 L 24.3125 -14.71875 L 70.703125 -14.71875 L 70.703125 0 Z M 7.359375 0 "/></g></g></g><g fill="#5f42ff" fill-opacity="1"><g transform="translate(517.776349, 140.588773)"><g><path d="M -0.46875 0 L 33.1875 -81.8125 L 52.828125 -81.8125 L 86.015625 0 L 67.671875 0 L 59.375 -21.5 L 25.59375 -21.5 L 17.1875 0 Z M 30.859375 -35.0625 L 54.234375 -35.0625 L 42.65625 -65.21875 Z M 30.859375 -35.0625 "/></g></g></g><g clip-path="url(#f0af01eb88)"><path fill="#5f42ff" d="M 19.875 25.257812 L 619.171875 25.257812 L 619.171875 34.765625 L 19.875 34.765625 Z M 19.875 25.257812 " fill-opacity="1" fill-rule="nonzero"/></g><g clip-path="url(#6361cfb434)"><path fill="#5f42ff" d="M 19.875 164.484375 L 619.183594 164.484375 L 619.183594 174.003906 L 19.875 174.003906 Z M 19.875 164.484375 " fill-opacity="1" fill-rule="nonzero"/></g><g clip-path="url(#b5e813dd5f)"><path fill="#5f42ff" d="M 19.875 173.867188 L 19.875 25.261719 L 29.390625 25.261719 L 29.390625 173.867188 Z M 19.875 173.867188 " fill-opacity="1" fill-rule="nonzero"/></g><g clip-path="url(#a7f546e19e)"><path fill="#5f42ff" d="M 609.652344 173.480469 L 609.652344 24.875 L 619.167969 24.875 L 619.167969 173.480469 Z M 609.652344 173.480469 " fill-opacity="1" fill-rule="nonzero"/></g><g clip-path="url(#ec445165ce)"><g clip-path="url(#08aa1a522c)"><g clip-path="url(#dab2fe92b9)"><path fill="#5f42ff" d="M 194.398438 24.8125 L 208.097656 34.765625 L 106.617188 174.441406 L 92.917969 164.488281 Z M 194.398438 24.8125 " fill-opacity="1" fill-rule="nonzero"/></g></g></g></svg>