<svg xmlns="http://www.w3.org/2000/svg" xmlns:xlink="http://www.w3.org/1999/xlink" width="778" zoomAndPan="magnify" viewBox="0 0 583.5 235.499993" height="314" preserveAspectRatio="xMidYMid meet" version="1.0"><defs><g/><clipPath id="dc591ad203"><path d="M 20.574219 17.480469 L 432.0625 17.480469 L 432.0625 24.011719 L 20.574219 24.011719 Z M 20.574219 17.480469 " clip-rule="nonzero"/></clipPath><clipPath id="bb3dd3bd4d"><path d="M 20.574219 113.078125 L 432.0625 113.078125 L 432.0625 119.613281 L 20.574219 119.613281 Z M 20.574219 113.078125 " clip-rule="nonzero"/></clipPath><clipPath id="42cb14d02b"><path d="M 20.574219 17.480469 L 27.109375 17.480469 L 27.109375 119.519531 L 20.574219 119.519531 Z M 20.574219 17.480469 " clip-rule="nonzero"/></clipPath><clipPath id="d2e6beac9f"><path d="M 425.527344 17.214844 L 432.0625 17.214844 L 432.0625 119.253906 L 425.527344 119.253906 Z M 425.527344 17.214844 " clip-rule="nonzero"/></clipPath><clipPath id="7c7050a618"><path d="M 70 17 L 150 17 L 150 120 L 70 120 Z M 70 17 " clip-rule="nonzero"/></clipPath><clipPath id="a803e07fe4"><path d="M 140.40625 17.175781 L 149.8125 24.011719 L 80.136719 119.914062 L 70.726562 113.082031 Z M 140.40625 17.175781 " clip-rule="nonzero"/></clipPath><clipPath id="3890734b58"><path d="M 140.40625 17.175781 L 149.8125 24.011719 L 80.136719 119.914062 L 70.730469 113.082031 Z M 140.40625 17.175781 " clip-rule="nonzero"/></clipPath></defs><g fill="#5f42ff" fill-opacity="1"><g transform="translate(20.575749, 195.061906)"><g><path d="M 4.984375 0 L 4.984375 -55.4375 L 26.296875 -55.4375 C 30.410156 -55.4375 34.257812 -54.722656 37.84375 -53.296875 C 41.4375 -51.867188 44.539062 -49.914062 47.15625 -47.4375 C 49.769531 -44.957031 51.828125 -42 53.328125 -38.5625 C 54.835938 -35.132812 55.59375 -31.46875 55.59375 -27.5625 C 55.59375 -23.707031 54.835938 -20.085938 53.328125 -16.703125 C 51.828125 -13.328125 49.769531 -10.410156 47.15625 -7.953125 C 44.539062 -5.503906 41.4375 -3.566406 37.84375 -2.140625 C 34.257812 -0.710938 30.410156 0 26.296875 0 Z M 26.21875 -45.21875 L 16.46875 -45.21875 L 16.46875 -10.21875 L 26.21875 -10.21875 C 28.644531 -10.21875 30.925781 -10.664062 33.0625 -11.5625 C 35.195312 -12.457031 37.054688 -13.679688 38.640625 -15.234375 C 40.222656 -16.796875 41.460938 -18.632812 42.359375 -20.75 C 43.265625 -22.863281 43.71875 -25.132812 43.71875 -27.5625 C 43.71875 -30.039062 43.265625 -32.359375 42.359375 -34.515625 C 41.460938 -36.679688 40.222656 -38.554688 38.640625 -40.140625 C 37.054688 -41.734375 35.195312 -42.976562 33.0625 -43.875 C 30.925781 -44.769531 28.644531 -45.21875 26.21875 -45.21875 Z M 26.21875 -45.21875 "/></g></g></g><g fill="#5f42ff" fill-opacity="1"><g transform="translate(79.01386, 195.061906)"><g><path d="M 4.984375 0 L 4.984375 -55.4375 L 47.59375 -55.4375 L 47.59375 -45.453125 L 16.46875 -45.453125 L 16.46875 -32.78125 L 36.984375 -32.78125 L 36.984375 -23.125 L 16.46875 -23.125 L 16.46875 -9.984375 L 47.90625 -9.984375 L 47.90625 0 Z M 4.984375 0 "/></g></g></g><g fill="#5f42ff" fill-opacity="1"><g transform="translate(130.087824, 195.061906)"><g><path d="M 22.171875 0 L -0.3125 -55.4375 L 12.109375 -55.4375 L 29.0625 -11.640625 L 46.40625 -55.4375 L 58.28125 -55.4375 L 35.46875 0 Z M 22.171875 0 "/></g></g></g><g fill="#5f42ff" fill-opacity="1"><g transform="translate(188.05083, 195.061906)"><g><path d="M 4.984375 0 L 4.984375 -55.4375 L 47.59375 -55.4375 L 47.59375 -45.453125 L 16.46875 -45.453125 L 16.46875 -32.78125 L 36.984375 -32.78125 L 36.984375 -23.125 L 16.46875 -23.125 L 16.46875 -9.984375 L 47.90625 -9.984375 L 47.90625 0 Z M 4.984375 0 "/></g></g></g><g fill="#5f42ff" fill-opacity="1"><g transform="translate(239.124794, 195.061906)"><g><path d="M 4.984375 0 L 4.984375 -55.4375 L 16.46875 -55.4375 L 16.46875 -10.140625 L 46.796875 -10.140625 L 46.796875 0 Z M 4.984375 0 "/></g></g></g><g fill="#5f42ff" fill-opacity="1"><g transform="translate(288.852621, 195.061906)"><g><path d="M 61.53125 -27.71875 C 61.53125 -23.757812 60.765625 -20.023438 59.234375 -16.515625 C 57.703125 -13.003906 55.628906 -9.96875 53.015625 -7.40625 C 50.398438 -4.84375 47.296875 -2.820312 43.703125 -1.34375 C 40.117188 0.132812 36.269531 0.875 32.15625 0.875 C 28.082031 0.875 24.25 0.132812 20.65625 -1.34375 C 17.070312 -2.820312 13.972656 -4.84375 11.359375 -7.40625 C 8.742188 -9.96875 6.671875 -13.003906 5.140625 -16.515625 C 3.609375 -20.023438 2.84375 -23.757812 2.84375 -27.71875 C 2.84375 -31.675781 3.609375 -35.410156 5.140625 -38.921875 C 6.671875 -42.429688 8.742188 -45.46875 11.359375 -48.03125 C 13.972656 -50.59375 17.070312 -52.609375 20.65625 -54.078125 C 24.25 -55.554688 28.082031 -56.296875 32.15625 -56.296875 C 36.269531 -56.296875 40.117188 -55.554688 43.703125 -54.078125 C 47.296875 -52.609375 50.398438 -50.59375 53.015625 -48.03125 C 55.628906 -45.46875 57.703125 -42.429688 59.234375 -38.921875 C 60.765625 -35.410156 61.53125 -31.675781 61.53125 -27.71875 Z M 49.734375 -27.71875 C 49.734375 -30.300781 49.28125 -32.6875 48.375 -34.875 C 47.476562 -37.070312 46.25 -38.972656 44.6875 -40.578125 C 43.132812 -42.191406 41.273438 -43.457031 39.109375 -44.375 C 36.953125 -45.300781 34.632812 -45.765625 32.15625 -45.765625 C 29.664062 -45.765625 27.351562 -45.300781 25.21875 -44.375 C 23.082031 -43.457031 21.234375 -42.191406 19.671875 -40.578125 C 18.117188 -38.972656 16.894531 -37.070312 16 -34.875 C 15.101562 -32.6875 14.65625 -30.300781 14.65625 -27.71875 C 14.65625 -25.1875 15.101562 -22.8125 16 -20.59375 C 16.894531 -18.375 18.117188 -16.457031 19.671875 -14.84375 C 21.234375 -13.238281 23.082031 -11.972656 25.21875 -11.046875 C 27.351562 -10.117188 29.664062 -9.65625 32.15625 -9.65625 C 34.632812 -9.65625 36.953125 -10.117188 39.109375 -11.046875 C 41.273438 -11.972656 43.132812 -13.238281 44.6875 -14.84375 C 46.25 -16.457031 47.476562 -18.375 48.375 -20.59375 C 49.28125 -22.8125 49.734375 -25.1875 49.734375 -27.71875 Z M 49.734375 -27.71875 "/></g></g></g><g fill="#5f42ff" fill-opacity="1"><g transform="translate(353.229568, 195.061906)"><g><path d="M 4.984375 0 L 4.984375 -55.4375 L 32.78125 -55.4375 C 35.476562 -55.4375 37.972656 -55 40.265625 -54.125 C 42.566406 -53.25 44.535156 -52.046875 46.171875 -50.515625 C 47.804688 -48.984375 49.082031 -47.148438 50 -45.015625 C 50.925781 -42.878906 51.390625 -40.546875 51.390625 -38.015625 C 51.390625 -35.523438 50.925781 -33.238281 50 -31.15625 C 49.082031 -29.070312 47.789062 -27.265625 46.125 -25.734375 C 44.457031 -24.203125 42.488281 -23.015625 40.21875 -22.171875 C 37.957031 -21.328125 35.476562 -20.90625 32.78125 -20.90625 L 16.46875 -20.90625 L 16.46875 0 Z M 31.515625 -45.53125 L 16.46875 -45.53125 L 16.46875 -30.40625 L 31.515625 -30.40625 C 33.992188 -30.40625 35.984375 -31.09375 37.484375 -32.46875 C 38.992188 -33.84375 39.75 -35.664062 39.75 -37.9375 C 39.75 -40.195312 38.992188 -42.023438 37.484375 -43.421875 C 35.984375 -44.828125 33.992188 -45.53125 31.515625 -45.53125 Z M 31.515625 -45.53125 "/></g></g></g><g fill="#5f42ff" fill-opacity="1"><g transform="translate(407.154178, 195.061906)"><g><path d="M 4.984375 0 L 4.984375 -55.4375 L 47.59375 -55.4375 L 47.59375 -45.453125 L 16.46875 -45.453125 L 16.46875 -32.78125 L 36.984375 -32.78125 L 36.984375 -23.125 L 16.46875 -23.125 L 16.46875 -9.984375 L 47.90625 -9.984375 L 47.90625 0 Z M 4.984375 0 "/></g></g></g><g fill="#5f42ff" fill-opacity="1"><g transform="translate(458.22812, 195.061906)"><g><path d="M 4.984375 0 L 4.984375 -55.4375 L 32.078125 -55.4375 C 34.867188 -55.4375 37.4375 -55.007812 39.78125 -54.15625 C 42.132812 -53.3125 44.15625 -52.140625 45.84375 -50.640625 C 47.539062 -49.140625 48.863281 -47.332031 49.8125 -45.21875 C 50.757812 -43.101562 51.234375 -40.78125 51.234375 -38.25 C 51.234375 -34.757812 50.242188 -31.640625 48.265625 -28.890625 C 46.285156 -26.148438 43.660156 -24.125 40.390625 -22.8125 L 52.65625 0 L 39.828125 0 L 28.984375 -21.21875 L 16.46875 -21.21875 L 16.46875 0 Z M 31.046875 -45.53125 L 16.46875 -45.53125 L 16.46875 -30.640625 L 31.046875 -30.640625 C 33.628906 -30.640625 35.695312 -31.328125 37.25 -32.703125 C 38.8125 -34.078125 39.59375 -35.875 39.59375 -38.09375 C 39.59375 -40.3125 38.8125 -42.101562 37.25 -43.46875 C 35.695312 -44.84375 33.628906 -45.53125 31.046875 -45.53125 Z M 31.046875 -45.53125 "/></g></g></g><g fill="#5f42ff" fill-opacity="1"><g transform="translate(511.994334, 195.061906)"><g><path d="M 0.234375 -8.796875 L 6.8125 -17.03125 C 10.03125 -14.226562 13.128906 -12.179688 16.109375 -10.890625 C 19.097656 -9.597656 22.253906 -8.953125 25.578125 -8.953125 C 29.003906 -8.953125 31.75 -9.582031 33.8125 -10.84375 C 35.875 -12.113281 36.90625 -13.804688 36.90625 -15.921875 C 36.90625 -17.816406 36.203125 -19.289062 34.796875 -20.34375 C 33.398438 -21.40625 31.066406 -22.203125 27.796875 -22.734375 L 16.78125 -24.625 C 12.03125 -25.414062 8.425781 -27.078125 5.96875 -29.609375 C 3.519531 -32.148438 2.296875 -35.425781 2.296875 -39.4375 C 2.296875 -44.613281 4.257812 -48.703125 8.1875 -51.703125 C 12.125 -54.710938 17.445312 -56.21875 24.15625 -56.21875 C 28.164062 -56.21875 32.210938 -55.53125 36.296875 -54.15625 C 40.390625 -52.789062 43.96875 -50.894531 47.03125 -48.46875 L 40.859375 -39.90625 C 37.898438 -42.175781 34.992188 -43.851562 32.140625 -44.9375 C 29.296875 -46.019531 26.367188 -46.5625 23.359375 -46.5625 C 20.296875 -46.5625 17.835938 -45.992188 15.984375 -44.859375 C 14.140625 -43.722656 13.21875 -42.207031 13.21875 -40.3125 C 13.21875 -38.613281 13.820312 -37.289062 15.03125 -36.34375 C 16.25 -35.394531 18.285156 -34.707031 21.140625 -34.28125 L 31.59375 -32.546875 C 37.082031 -31.648438 41.210938 -29.894531 43.984375 -27.28125 C 46.753906 -24.664062 48.140625 -21.222656 48.140625 -16.953125 C 48.140625 -11.566406 46.015625 -7.257812 41.765625 -4.03125 C 37.515625 -0.8125 31.851562 0.796875 24.78125 0.796875 C 20.351562 0.796875 15.984375 -0.046875 11.671875 -1.734375 C 7.367188 -3.429688 3.554688 -5.785156 0.234375 -8.796875 Z M 0.234375 -8.796875 "/></g></g></g><g fill="#5f42ff" fill-opacity="1"><g transform="translate(31.440899, 96.671401)"><g><path d="M 5.0625 0 L 5.0625 -56.171875 L 48.234375 -56.171875 L 48.234375 -46.0625 L 16.6875 -46.0625 L 16.6875 -33.21875 L 37.484375 -33.21875 L 37.484375 -23.4375 L 16.6875 -23.4375 L 16.6875 -10.109375 L 48.546875 -10.109375 L 48.546875 0 Z M 5.0625 0 "/></g></g></g><g fill="#5f42ff" fill-opacity="1"><g transform="translate(83.197875, 96.671401)"><g><path d="M 13.15625 0 L -0.234375 0 L 21.109375 -29.046875 L 0.875 -56.171875 L 14.765625 -56.171875 L 28.09375 -37.71875 L 41.328125 -56.171875 L 54.734375 -56.171875 L 34.75 -29.046875 L 56.421875 0 L 42.53125 0 L 27.84375 -20.46875 Z M 13.15625 0 "/></g></g></g><g fill="#5f42ff" fill-opacity="1"><g transform="translate(139.288003, 96.671401)"><g><path d="M 33.140625 -9.953125 C 36.085938 -9.953125 38.84375 -10.566406 41.40625 -11.796875 C 43.976562 -13.023438 46.253906 -14.789062 48.234375 -17.09375 L 55.859375 -9.546875 C 53.179688 -6.390625 49.769531 -3.875 45.625 -2 C 41.476562 -0.132812 37.210938 0.796875 32.828125 0.796875 C 28.597656 0.796875 24.648438 0.0507812 20.984375 -1.4375 C 17.316406 -2.9375 14.144531 -4.96875 11.46875 -7.53125 C 8.800781 -10.101562 6.703125 -13.15625 5.171875 -16.6875 C 3.648438 -20.21875 2.890625 -24.019531 2.890625 -28.09375 C 2.890625 -32.15625 3.664062 -35.960938 5.21875 -39.515625 C 6.769531 -43.078125 8.878906 -46.140625 11.546875 -48.703125 C 14.222656 -51.273438 17.394531 -53.3125 21.0625 -54.8125 C 24.726562 -56.3125 28.648438 -57.0625 32.828125 -57.0625 C 37.316406 -57.0625 41.675781 -56.109375 45.90625 -54.203125 C 50.132812 -52.304688 53.554688 -49.753906 56.171875 -46.546875 L 48.3125 -38.765625 C 46.332031 -41.222656 44.003906 -43.109375 41.328125 -44.421875 C 38.648438 -45.734375 35.816406 -46.390625 32.828125 -46.390625 C 30.304688 -46.390625 27.9375 -45.921875 25.71875 -44.984375 C 23.5 -44.046875 21.585938 -42.757812 19.984375 -41.125 C 18.378906 -39.5 17.117188 -37.570312 16.203125 -35.34375 C 15.296875 -33.125 14.84375 -30.707031 14.84375 -28.09375 C 14.84375 -25.519531 15.3125 -23.125 16.25 -20.90625 C 17.1875 -18.6875 18.46875 -16.773438 20.09375 -15.171875 C 21.726562 -13.566406 23.65625 -12.296875 25.875 -11.359375 C 28.101562 -10.421875 30.523438 -9.953125 33.140625 -9.953125 Z M 33.140625 -9.953125 "/></g></g></g><g fill="#5f42ff" fill-opacity="1"><g transform="translate(196.902749, 96.671401)"><g><path d="M 5.0625 0 L 5.0625 -56.171875 L 16.6875 -56.171875 L 16.6875 -33.625 L 42.53125 -33.625 L 42.53125 -56.171875 L 54.171875 -56.171875 L 54.171875 0 L 42.53125 0 L 42.53125 -22.953125 L 16.6875 -22.953125 L 16.6875 0 Z M 5.0625 0 "/></g></g></g><g fill="#5f42ff" fill-opacity="1"><g transform="translate(256.202604, 96.671401)"><g><path d="M 5.0625 0 L 5.0625 -56.171875 L 32.5 -56.171875 C 35.332031 -56.171875 37.9375 -55.742188 40.3125 -54.890625 C 42.695312 -54.035156 44.742188 -52.84375 46.453125 -51.3125 C 48.171875 -49.789062 49.507812 -47.957031 50.46875 -45.8125 C 51.4375 -43.675781 51.921875 -41.328125 51.921875 -38.765625 C 51.921875 -35.234375 50.914062 -32.078125 48.90625 -29.296875 C 46.90625 -26.515625 44.242188 -24.453125 40.921875 -23.109375 L 53.359375 0 L 40.359375 0 L 29.375 -21.5 L 16.6875 -21.5 L 16.6875 0 Z M 31.453125 -46.140625 L 16.6875 -46.140625 L 16.6875 -31.0625 L 31.453125 -31.0625 C 34.078125 -31.0625 36.175781 -31.753906 37.75 -33.140625 C 39.332031 -34.535156 40.125 -36.351562 40.125 -38.59375 C 40.125 -40.84375 39.332031 -42.660156 37.75 -44.046875 C 36.175781 -45.441406 34.078125 -46.140625 31.453125 -46.140625 Z M 31.453125 -46.140625 "/></g></g></g><g fill="#5f42ff" fill-opacity="1"><g transform="translate(310.687855, 96.671401)"><g><path d="M 5.0625 0 L 5.0625 -56.171875 L 48.234375 -56.171875 L 48.234375 -46.0625 L 16.6875 -46.0625 L 16.6875 -33.21875 L 37.484375 -33.21875 L 37.484375 -23.4375 L 16.6875 -23.4375 L 16.6875 -10.109375 L 48.546875 -10.109375 L 48.546875 0 Z M 5.0625 0 "/></g></g></g><g fill="#5f42ff" fill-opacity="1"><g transform="translate(362.444814, 96.671401)"><g><path d="M -0.328125 0 L 22.796875 -56.171875 L 36.265625 -56.171875 L 59.0625 0 L 46.46875 0 L 40.765625 -14.765625 L 17.578125 -14.765625 L 11.796875 0 Z M 21.1875 -24.078125 L 37.234375 -24.078125 L 29.296875 -44.78125 Z M 21.1875 -24.078125 "/></g></g></g><g clip-path="url(#dc591ad203)"><path fill="#5f42ff" d="M 20.574219 17.480469 L 432.066406 17.480469 L 432.066406 24.011719 L 20.574219 24.011719 Z M 20.574219 17.480469 " fill-opacity="1" fill-rule="nonzero"/></g><g clip-path="url(#bb3dd3bd4d)"><path fill="#5f42ff" d="M 20.574219 113.078125 L 432.074219 113.078125 L 432.074219 119.613281 L 20.574219 119.613281 Z M 20.574219 113.078125 " fill-opacity="1" fill-rule="nonzero"/></g><g clip-path="url(#42cb14d02b)"><path fill="#5f42ff" d="M 20.574219 119.519531 L 20.574219 17.484375 L 27.109375 17.484375 L 27.109375 119.519531 Z M 20.574219 119.519531 " fill-opacity="1" fill-rule="nonzero"/></g><g clip-path="url(#d2e6beac9f)"><path fill="#5f42ff" d="M 425.527344 119.253906 L 425.527344 17.21875 L 432.0625 17.21875 L 432.0625 119.253906 Z M 425.527344 119.253906 " fill-opacity="1" fill-rule="nonzero"/></g><g clip-path="url(#7c7050a618)"><g clip-path="url(#a803e07fe4)"><g clip-path="url(#3890734b58)"><path fill="#5f42ff" d="M 140.40625 17.175781 L 149.8125 24.011719 L 80.136719 119.914062 L 70.726562 113.082031 Z M 140.40625 17.175781 " fill-opacity="1" fill-rule="nonzero"/></g></g></g></svg>