<svg xmlns="http://www.w3.org/2000/svg" xmlns:xlink="http://www.w3.org/1999/xlink" width="792" zoomAndPan="magnify" viewBox="0 0 594 235.499993" height="314" preserveAspectRatio="xMidYMid meet" version="1.0"><defs><g/><clipPath id="4ba8d2ba01"><path d="M 20.835938 17.480469 L 432.324219 17.480469 L 432.324219 24.011719 L 20.835938 24.011719 Z M 20.835938 17.480469 " clip-rule="nonzero"/></clipPath><clipPath id="a8858a28ed"><path d="M 20.835938 17.472656 L 27.367188 17.472656 L 27.367188 119.511719 L 20.835938 119.511719 Z M 20.835938 17.472656 " clip-rule="nonzero"/></clipPath><clipPath id="f1fcac8382"><path d="M 20.835938 113.078125 L 432.324219 113.078125 L 432.324219 119.613281 L 20.835938 119.613281 Z M 20.835938 113.078125 " clip-rule="nonzero"/></clipPath><clipPath id="aff3d92285"><path d="M 425.789062 17.207031 L 432.324219 17.207031 L 432.324219 119.246094 L 425.789062 119.246094 Z M 425.789062 17.207031 " clip-rule="nonzero"/></clipPath><clipPath id="ea4a79c1e5"><path d="M 70 17 L 151 17 L 151 120 L 70 120 Z M 70 17 " clip-rule="nonzero"/></clipPath><clipPath id="9443308f44"><path d="M 140.667969 17.175781 L 150.074219 24.011719 L 80.398438 119.914062 L 70.992188 113.082031 Z M 140.667969 17.175781 " clip-rule="nonzero"/></clipPath><clipPath id="e0e3d73029"><path d="M 140.667969 17.175781 L 150.074219 24.011719 L 80.398438 119.914062 L 70.992188 113.078125 Z M 140.667969 17.175781 " clip-rule="nonzero"/></clipPath></defs><g clip-path="url(#4ba8d2ba01)"><path fill="#5f42ff" d="M 20.835938 17.480469 L 432.324219 17.480469 L 432.324219 24.011719 L 20.835938 24.011719 Z M 20.835938 17.480469 " fill-opacity="1" fill-rule="nonzero"/></g><g clip-path="url(#a8858a28ed)"><path fill="#5f42ff" d="M 20.835938 119.511719 L 20.835938 17.476562 L 27.367188 17.476562 L 27.367188 119.511719 Z M 20.835938 119.511719 " fill-opacity="1" fill-rule="nonzero"/></g><g fill="#5f42ff" fill-opacity="1"><g transform="translate(20.836342, 195.068128)"><g><path d="M 4.984375 -55.4375 L 31.046875 -55.4375 C 36.585938 -55.4375 41.097656 -54.019531 44.578125 -51.1875 C 48.066406 -48.363281 49.8125 -44.710938 49.8125 -40.234375 C 49.8125 -37.796875 49.203125 -35.570312 47.984375 -33.5625 C 46.773438 -31.5625 45.113281 -29.90625 43 -28.59375 C 45.632812 -27.320312 47.742188 -25.585938 49.328125 -23.390625 C 50.910156 -21.203125 51.703125 -18.765625 51.703125 -16.078125 C 51.703125 -11.273438 49.921875 -7.394531 46.359375 -4.4375 C 42.796875 -1.476562 38.113281 0 32.3125 0 L 4.984375 0 Z M 30.328125 -45.921875 L 16.46875 -45.921875 L 16.46875 -32.78125 L 30.328125 -32.78125 C 32.753906 -32.78125 34.707031 -33.375 36.1875 -34.5625 C 37.664062 -35.75 38.40625 -37.347656 38.40625 -39.359375 C 38.40625 -41.359375 37.664062 -42.953125 36.1875 -44.140625 C 34.707031 -45.328125 32.753906 -45.921875 30.328125 -45.921875 Z M 31.4375 -9.5 C 34.070312 -9.5 36.179688 -10.144531 37.765625 -11.4375 C 39.347656 -12.726562 40.140625 -14.484375 40.140625 -16.703125 C 40.140625 -18.816406 39.347656 -20.53125 37.765625 -21.84375 C 36.179688 -23.164062 34.070312 -23.828125 31.4375 -23.828125 L 16.46875 -23.828125 L 16.46875 -9.5 Z M 31.4375 -9.5 "/></g></g></g><g fill="#5f42ff" fill-opacity="1"><g transform="translate(75.549379, 195.068128)"><g><path d="M 4.984375 0 L 4.984375 -55.4375 L 16.46875 -55.4375 L 16.46875 -10.140625 L 46.796875 -10.140625 L 46.796875 0 Z M 4.984375 0 "/></g></g></g><g fill="#5f42ff" fill-opacity="1"><g transform="translate(125.274102, 195.068128)"><g><path d="M 61.53125 -27.71875 C 61.53125 -23.757812 60.765625 -20.023438 59.234375 -16.515625 C 57.703125 -13.003906 55.628906 -9.96875 53.015625 -7.40625 C 50.398438 -4.84375 47.296875 -2.820312 43.703125 -1.34375 C 40.117188 0.132812 36.269531 0.875 32.15625 0.875 C 28.082031 0.875 24.25 0.132812 20.65625 -1.34375 C 17.070312 -2.820312 13.972656 -4.84375 11.359375 -7.40625 C 8.742188 -9.96875 6.671875 -13.003906 5.140625 -16.515625 C 3.609375 -20.023438 2.84375 -23.757812 2.84375 -27.71875 C 2.84375 -31.675781 3.609375 -35.410156 5.140625 -38.921875 C 6.671875 -42.429688 8.742188 -45.46875 11.359375 -48.03125 C 13.972656 -50.59375 17.070312 -52.609375 20.65625 -54.078125 C 24.25 -55.554688 28.082031 -56.296875 32.15625 -56.296875 C 36.269531 -56.296875 40.117188 -55.554688 43.703125 -54.078125 C 47.296875 -52.609375 50.398438 -50.59375 53.015625 -48.03125 C 55.628906 -45.46875 57.703125 -42.429688 59.234375 -38.921875 C 60.765625 -35.410156 61.53125 -31.675781 61.53125 -27.71875 Z M 49.734375 -27.71875 C 49.734375 -30.300781 49.28125 -32.6875 48.375 -34.875 C 47.476562 -37.070312 46.25 -38.972656 44.6875 -40.578125 C 43.132812 -42.191406 41.273438 -43.457031 39.109375 -44.375 C 36.953125 -45.300781 34.632812 -45.765625 32.15625 -45.765625 C 29.664062 -45.765625 27.351562 -45.300781 25.21875 -44.375 C 23.082031 -43.457031 21.234375 -42.191406 19.671875 -40.578125 C 18.117188 -38.972656 16.894531 -37.070312 16 -34.875 C 15.101562 -32.6875 14.65625 -30.300781 14.65625 -27.71875 C 14.65625 -25.1875 15.101562 -22.8125 16 -20.59375 C 16.894531 -18.375 18.117188 -16.457031 19.671875 -14.84375 C 21.234375 -13.238281 23.082031 -11.972656 25.21875 -11.046875 C 27.351562 -10.117188 29.664062 -9.65625 32.15625 -9.65625 C 34.632812 -9.65625 36.953125 -10.117188 39.109375 -11.046875 C 41.273438 -11.972656 43.132812 -13.238281 44.6875 -14.84375 C 46.25 -16.457031 47.476562 -18.375 48.375 -20.59375 C 49.28125 -22.8125 49.734375 -25.1875 49.734375 -27.71875 Z M 49.734375 -27.71875 "/></g></g></g><g fill="#5f42ff" fill-opacity="1"><g transform="translate(189.647037, 195.068128)"><g><path d="M 60.03125 -27.640625 C 60.03125 -23.566406 59.328125 -19.773438 57.921875 -16.265625 C 56.523438 -12.753906 54.597656 -9.742188 52.140625 -7.234375 C 49.691406 -4.734375 46.75 -2.753906 43.3125 -1.296875 C 39.882812 0.148438 36.191406 0.875 32.234375 0.875 C 28.109375 0.875 24.25 0.132812 20.65625 -1.34375 C 17.070312 -2.820312 13.972656 -4.84375 11.359375 -7.40625 C 8.742188 -9.96875 6.671875 -12.988281 5.140625 -16.46875 C 3.609375 -19.957031 2.84375 -23.707031 2.84375 -27.71875 C 2.84375 -31.726562 3.59375 -35.472656 5.09375 -38.953125 C 6.601562 -42.441406 8.664062 -45.46875 11.28125 -48.03125 C 13.894531 -50.59375 16.992188 -52.609375 20.578125 -54.078125 C 24.171875 -55.554688 28.003906 -56.296875 32.078125 -56.296875 C 36.660156 -56.296875 40.984375 -55.375 45.046875 -53.53125 C 49.117188 -51.6875 52.472656 -49.148438 55.109375 -45.921875 L 47.109375 -38.5625 C 45.160156 -40.882812 42.90625 -42.664062 40.34375 -43.90625 C 37.78125 -45.144531 35.023438 -45.765625 32.078125 -45.765625 C 29.585938 -45.765625 27.273438 -45.300781 25.140625 -44.375 C 23.003906 -43.457031 21.15625 -42.191406 19.59375 -40.578125 C 18.039062 -38.972656 16.828125 -37.070312 15.953125 -34.875 C 15.085938 -32.6875 14.65625 -30.300781 14.65625 -27.71875 C 14.65625 -25.125 15.101562 -22.71875 16 -20.5 C 16.894531 -18.289062 18.132812 -16.378906 19.71875 -14.765625 C 21.300781 -13.160156 23.1875 -11.894531 25.375 -10.96875 C 27.570312 -10.039062 29.910156 -9.578125 32.390625 -9.578125 C 36.296875 -9.578125 39.660156 -10.660156 42.484375 -12.828125 C 45.304688 -14.992188 47.0625 -17.765625 47.75 -21.140625 L 31.359375 -21.140625 L 31.359375 -31.125 L 60.03125 -31.125 Z M 60.03125 -27.640625 "/></g></g></g><g fill="#5f42ff" fill-opacity="1"><g transform="translate(252.515557, 195.068128)"><g/></g></g><g fill="#5f42ff" fill-opacity="1"><g transform="translate(268.430641, 195.068128)"><g><path d="M 52.1875 -6.09375 L 45.6875 1.578125 C 44.425781 0.628906 43.144531 -0.359375 41.84375 -1.390625 C 40.550781 -2.421875 39.25 -3.460938 37.9375 -4.515625 C 35.664062 -2.773438 33.144531 -1.453125 30.375 -0.546875 C 27.601562 0.347656 24.628906 0.796875 21.453125 0.796875 C 15.648438 0.796875 10.941406 -0.65625 7.328125 -3.5625 C 3.710938 -6.46875 1.90625 -10.269531 1.90625 -14.96875 C 1.90625 -18.394531 2.734375 -21.269531 4.390625 -23.59375 C 6.054688 -25.914062 8.816406 -28.132812 12.671875 -30.25 C 11.035156 -32.414062 9.859375 -34.445312 9.140625 -36.34375 C 8.429688 -38.25 8.078125 -40.253906 8.078125 -42.359375 C 8.078125 -46.316406 9.554688 -49.640625 12.515625 -52.328125 C 15.472656 -55.023438 19.164062 -56.375 23.59375 -56.375 C 27.875 -56.375 31.4375 -55.132812 34.28125 -52.65625 C 37.132812 -50.175781 38.5625 -47.0625 38.5625 -43.3125 C 38.5625 -40.882812 37.914062 -38.664062 36.625 -36.65625 C 35.332031 -34.65625 33.363281 -32.863281 30.71875 -31.28125 L 26.6875 -28.828125 C 28.21875 -27.191406 29.878906 -25.488281 31.671875 -23.71875 C 33.472656 -21.945312 35.320312 -20.191406 37.21875 -18.453125 C 38.21875 -20.191406 39.085938 -22.101562 39.828125 -24.1875 C 40.566406 -26.269531 41.175781 -28.53125 41.65625 -30.96875 L 51 -29.453125 C 50.207031 -25.972656 49.253906 -22.804688 48.140625 -19.953125 C 47.035156 -17.097656 45.769531 -14.566406 44.34375 -12.359375 C 45.664062 -11.191406 47 -10.078125 48.34375 -9.015625 C 49.6875 -7.960938 50.96875 -6.988281 52.1875 -6.09375 Z M 17.8125 -42.609375 C 17.8125 -41.441406 18.078125 -40.289062 18.609375 -39.15625 C 19.140625 -38.019531 20.085938 -36.609375 21.453125 -34.921875 L 24.703125 -36.90625 C 26.128906 -37.75 27.160156 -38.65625 27.796875 -39.625 C 28.429688 -40.601562 28.75 -41.726562 28.75 -43 C 28.75 -44.476562 28.21875 -45.726562 27.15625 -46.75 C 26.101562 -47.78125 24.8125 -48.296875 23.28125 -48.296875 C 21.695312 -48.296875 20.390625 -47.753906 19.359375 -46.671875 C 18.328125 -45.597656 17.8125 -44.242188 17.8125 -42.609375 Z M 11.953125 -15.765625 C 11.953125 -13.328125 12.875 -11.382812 14.71875 -9.9375 C 16.570312 -8.488281 19.082031 -7.765625 22.25 -7.765625 C 23.882812 -7.765625 25.441406 -7.988281 26.921875 -8.4375 C 28.398438 -8.882812 29.800781 -9.554688 31.125 -10.453125 C 28.75 -12.617188 26.4375 -14.835938 24.1875 -17.109375 C 21.945312 -19.378906 19.847656 -21.617188 17.890625 -23.828125 C 15.785156 -22.617188 14.269531 -21.378906 13.34375 -20.109375 C 12.414062 -18.847656 11.953125 -17.398438 11.953125 -15.765625 Z M 11.953125 -15.765625 "/></g></g></g><g fill="#5f42ff" fill-opacity="1"><g transform="translate(322.589416, 195.068128)"><g/></g></g><g fill="#5f42ff" fill-opacity="1"><g transform="translate(338.5045, 195.068128)"><g><path d="M 4.984375 -55.4375 L 15.921875 -55.4375 L 43.46875 -19.5625 L 43.46875 -55.4375 L 54.25 -55.4375 L 54.25 0 L 44.109375 0 L 15.84375 -37.0625 L 15.84375 0 L 4.984375 0 Z M 4.984375 -55.4375 "/></g></g></g><g fill="#5f42ff" fill-opacity="1"><g transform="translate(397.809948, 195.068128)"><g><path d="M 4.984375 0 L 4.984375 -55.4375 L 47.59375 -55.4375 L 47.59375 -45.453125 L 16.46875 -45.453125 L 16.46875 -32.78125 L 36.984375 -32.78125 L 36.984375 -23.125 L 16.46875 -23.125 L 16.46875 -9.984375 L 47.90625 -9.984375 L 47.90625 0 Z M 4.984375 0 "/></g></g></g><g fill="#5f42ff" fill-opacity="1"><g transform="translate(448.880728, 195.068128)"><g><path d="M 26.375 0 L 14.328125 0 L 2.0625 -55.4375 L 13.859375 -55.4375 L 21.375 -17.8125 L 32.234375 -55.4375 L 43 -55.4375 L 53.765625 -17.96875 L 61.296875 -55.4375 L 72.6875 -55.4375 L 60.421875 0 L 48.390625 0 L 37.375 -38.71875 Z M 26.375 0 "/></g></g></g><g fill="#5f42ff" fill-opacity="1"><g transform="translate(523.626172, 195.068128)"><g><path d="M 0.234375 -8.796875 L 6.8125 -17.03125 C 10.03125 -14.226562 13.128906 -12.179688 16.109375 -10.890625 C 19.097656 -9.597656 22.253906 -8.953125 25.578125 -8.953125 C 29.003906 -8.953125 31.75 -9.582031 33.8125 -10.84375 C 35.875 -12.113281 36.90625 -13.804688 36.90625 -15.921875 C 36.90625 -17.816406 36.203125 -19.289062 34.796875 -20.34375 C 33.398438 -21.40625 31.066406 -22.203125 27.796875 -22.734375 L 16.78125 -24.625 C 12.03125 -25.414062 8.425781 -27.078125 5.96875 -29.609375 C 3.519531 -32.148438 2.296875 -35.425781 2.296875 -39.4375 C 2.296875 -44.613281 4.257812 -48.703125 8.1875 -51.703125 C 12.125 -54.710938 17.445312 -56.21875 24.15625 -56.21875 C 28.164062 -56.21875 32.210938 -55.53125 36.296875 -54.15625 C 40.390625 -52.789062 43.96875 -50.894531 47.03125 -48.46875 L 40.859375 -39.90625 C 37.898438 -42.175781 34.992188 -43.851562 32.140625 -44.9375 C 29.296875 -46.019531 26.367188 -46.5625 23.359375 -46.5625 C 20.296875 -46.5625 17.835938 -45.992188 15.984375 -44.859375 C 14.140625 -43.722656 13.21875 -42.207031 13.21875 -40.3125 C 13.21875 -38.613281 13.820312 -37.289062 15.03125 -36.34375 C 16.25 -35.394531 18.285156 -34.707031 21.140625 -34.28125 L 31.59375 -32.546875 C 37.082031 -31.648438 41.210938 -29.894531 43.984375 -27.28125 C 46.753906 -24.664062 48.140625 -21.222656 48.140625 -16.953125 C 48.140625 -11.566406 46.015625 -7.257812 41.765625 -4.03125 C 37.515625 -0.8125 31.851562 0.796875 24.78125 0.796875 C 20.351562 0.796875 15.984375 -0.046875 11.671875 -1.734375 C 7.367188 -3.429688 3.554688 -5.785156 0.234375 -8.796875 Z M 0.234375 -8.796875 "/></g></g></g><g fill="#5f42ff" fill-opacity="1"><g transform="translate(31.701492, 96.671401)"><g><path d="M 5.0625 0 L 5.0625 -56.171875 L 48.234375 -56.171875 L 48.234375 -46.0625 L 16.6875 -46.0625 L 16.6875 -33.21875 L 37.484375 -33.21875 L 37.484375 -23.4375 L 16.6875 -23.4375 L 16.6875 -10.109375 L 48.546875 -10.109375 L 48.546875 0 Z M 5.0625 0 "/></g></g></g><g fill="#5f42ff" fill-opacity="1"><g transform="translate(83.458468, 96.671401)"><g><path d="M 13.15625 0 L -0.234375 0 L 21.109375 -29.046875 L 0.875 -56.171875 L 14.765625 -56.171875 L 28.09375 -37.71875 L 41.328125 -56.171875 L 54.734375 -56.171875 L 34.75 -29.046875 L 56.421875 0 L 42.53125 0 L 27.84375 -20.46875 Z M 13.15625 0 "/></g></g></g><g fill="#5f42ff" fill-opacity="1"><g transform="translate(139.548596, 96.671401)"><g><path d="M 33.140625 -9.953125 C 36.085938 -9.953125 38.84375 -10.566406 41.40625 -11.796875 C 43.976562 -13.023438 46.253906 -14.789062 48.234375 -17.09375 L 55.859375 -9.546875 C 53.179688 -6.390625 49.769531 -3.875 45.625 -2 C 41.476562 -0.132812 37.210938 0.796875 32.828125 0.796875 C 28.597656 0.796875 24.648438 0.0507812 20.984375 -1.4375 C 17.316406 -2.9375 14.144531 -4.96875 11.46875 -7.53125 C 8.800781 -10.101562 6.703125 -13.15625 5.171875 -16.6875 C 3.648438 -20.21875 2.890625 -24.019531 2.890625 -28.09375 C 2.890625 -32.15625 3.664062 -35.960938 5.21875 -39.515625 C 6.769531 -43.078125 8.878906 -46.140625 11.546875 -48.703125 C 14.222656 -51.273438 17.394531 -53.3125 21.0625 -54.8125 C 24.726562 -56.3125 28.648438 -57.0625 32.828125 -57.0625 C 37.316406 -57.0625 41.675781 -56.109375 45.90625 -54.203125 C 50.132812 -52.304688 53.554688 -49.753906 56.171875 -46.546875 L 48.3125 -38.765625 C 46.332031 -41.222656 44.003906 -43.109375 41.328125 -44.421875 C 38.648438 -45.734375 35.816406 -46.390625 32.828125 -46.390625 C 30.304688 -46.390625 27.9375 -45.921875 25.71875 -44.984375 C 23.5 -44.046875 21.585938 -42.757812 19.984375 -41.125 C 18.378906 -39.5 17.117188 -37.570312 16.203125 -35.34375 C 15.296875 -33.125 14.84375 -30.707031 14.84375 -28.09375 C 14.84375 -25.519531 15.3125 -23.125 16.25 -20.90625 C 17.1875 -18.6875 18.46875 -16.773438 20.09375 -15.171875 C 21.726562 -13.566406 23.65625 -12.296875 25.875 -11.359375 C 28.101562 -10.421875 30.523438 -9.953125 33.140625 -9.953125 Z M 33.140625 -9.953125 "/></g></g></g><g fill="#5f42ff" fill-opacity="1"><g transform="translate(197.163342, 96.671401)"><g><path d="M 5.0625 0 L 5.0625 -56.171875 L 16.6875 -56.171875 L 16.6875 -33.625 L 42.53125 -33.625 L 42.53125 -56.171875 L 54.171875 -56.171875 L 54.171875 0 L 42.53125 0 L 42.53125 -22.953125 L 16.6875 -22.953125 L 16.6875 0 Z M 5.0625 0 "/></g></g></g><g fill="#5f42ff" fill-opacity="1"><g transform="translate(256.463197, 96.671401)"><g><path d="M 5.0625 0 L 5.0625 -56.171875 L 32.5 -56.171875 C 35.332031 -56.171875 37.9375 -55.742188 40.3125 -54.890625 C 42.695312 -54.035156 44.742188 -52.84375 46.453125 -51.3125 C 48.171875 -49.789062 49.507812 -47.957031 50.46875 -45.8125 C 51.4375 -43.675781 51.921875 -41.328125 51.921875 -38.765625 C 51.921875 -35.234375 50.914062 -32.078125 48.90625 -29.296875 C 46.90625 -26.515625 44.242188 -24.453125 40.921875 -23.109375 L 53.359375 0 L 40.359375 0 L 29.375 -21.5 L 16.6875 -21.5 L 16.6875 0 Z M 31.453125 -46.140625 L 16.6875 -46.140625 L 16.6875 -31.0625 L 31.453125 -31.0625 C 34.078125 -31.0625 36.175781 -31.753906 37.75 -33.140625 C 39.332031 -34.535156 40.125 -36.351562 40.125 -38.59375 C 40.125 -40.84375 39.332031 -42.660156 37.75 -44.046875 C 36.175781 -45.441406 34.078125 -46.140625 31.453125 -46.140625 Z M 31.453125 -46.140625 "/></g></g></g><g fill="#5f42ff" fill-opacity="1"><g transform="translate(310.948448, 96.671401)"><g><path d="M 5.0625 0 L 5.0625 -56.171875 L 48.234375 -56.171875 L 48.234375 -46.0625 L 16.6875 -46.0625 L 16.6875 -33.21875 L 37.484375 -33.21875 L 37.484375 -23.4375 L 16.6875 -23.4375 L 16.6875 -10.109375 L 48.546875 -10.109375 L 48.546875 0 Z M 5.0625 0 "/></g></g></g><g fill="#5f42ff" fill-opacity="1"><g transform="translate(362.705407, 96.671401)"><g><path d="M -0.328125 0 L 22.796875 -56.171875 L 36.265625 -56.171875 L 59.0625 0 L 46.46875 0 L 40.765625 -14.765625 L 17.578125 -14.765625 L 11.796875 0 Z M 21.1875 -24.078125 L 37.234375 -24.078125 L 29.296875 -44.78125 Z M 21.1875 -24.078125 "/></g></g></g><g clip-path="url(#f1fcac8382)"><path fill="#5f42ff" d="M 20.835938 113.078125 L 432.335938 113.078125 L 432.335938 119.613281 L 20.835938 119.613281 Z M 20.835938 113.078125 " fill-opacity="1" fill-rule="nonzero"/></g><g clip-path="url(#aff3d92285)"><path fill="#5f42ff" d="M 425.789062 119.246094 L 425.789062 17.210938 L 432.324219 17.210938 L 432.324219 119.246094 Z M 425.789062 119.246094 " fill-opacity="1" fill-rule="nonzero"/></g><g clip-path="url(#ea4a79c1e5)"><g clip-path="url(#9443308f44)"><g clip-path="url(#e0e3d73029)"><path fill="#5f42ff" d="M 140.667969 17.175781 L 150.074219 24.011719 L 80.398438 119.914062 L 70.992188 113.082031 Z M 140.667969 17.175781 " fill-opacity="1" fill-rule="nonzero"/></g></g></g></svg>