<svg xmlns="http://www.w3.org/2000/svg" xmlns:xlink="http://www.w3.org/1999/xlink" width="500" zoomAndPan="magnify" viewBox="0 0 375 374.999991" height="500" preserveAspectRatio="xMidYMid meet" version="1.0"><defs><g/><clipPath id="04c0ef262a"><path d="M 0 252 L 188 252 L 188 375 L 0 375 Z M 0 252 " clip-rule="nonzero"/></clipPath><clipPath id="22fc09318b"><path d="M -94.804688 349.894531 L -38.878906 252.652344 L 187.511719 382.847656 L 131.585938 480.089844 Z M -94.804688 349.894531 " clip-rule="nonzero"/></clipPath><clipPath id="9559266b50"><path d="M -94.804688 349.894531 L -38.878906 252.652344 L 187.503906 382.84375 L 131.582031 480.085938 Z M -94.804688 349.894531 " clip-rule="nonzero"/></clipPath><clipPath id="f5364a923f"><path d="M 187 0 L 375 0 L 375 123 L 187 123 Z M 187 0 " clip-rule="nonzero"/></clipPath><clipPath id="aeb35564c7"><path d="M 187.503906 -7.425781 L 243.425781 -104.667969 L 469.820312 25.53125 L 413.894531 122.773438 Z M 187.503906 -7.425781 " clip-rule="nonzero"/></clipPath><clipPath id="17eb7e012b"><path d="M 187.503906 -7.425781 L 243.425781 -104.667969 L 469.8125 25.527344 L 413.886719 122.769531 Z M 187.503906 -7.425781 " clip-rule="nonzero"/></clipPath><clipPath id="faebeac6b4"><path d="M 29.820312 264.785156 L 345.179688 264.785156 L 345.179688 276.089844 L 29.820312 276.089844 Z M 29.820312 264.785156 " clip-rule="nonzero"/></clipPath><clipPath id="111502be71"><path d="M 29.820312 99.433594 L 345.179688 99.433594 L 345.179688 110.722656 L 29.820312 110.722656 Z M 29.820312 99.433594 " clip-rule="nonzero"/></clipPath><clipPath id="34e5afeddf"><path d="M 29.816406 99.429688 L 41.117188 99.429688 L 41.117188 275.925781 L 29.816406 275.925781 Z M 29.816406 99.429688 " clip-rule="nonzero"/></clipPath><clipPath id="b9d11174bf"><path d="M 333.875 98.90625 L 345.175781 98.90625 L 345.175781 275.40625 L 333.875 275.40625 Z M 333.875 98.90625 " clip-rule="nonzero"/></clipPath></defs><rect x="-37.5" width="450" fill="#ffffff" y="-37.499999" height="449.999989" fill-opacity="1"/><rect x="-37.5" width="450" fill="#5f42ff" y="-37.499999" height="449.999989" fill-opacity="1"/><g clip-path="url(#04c0ef262a)"><g clip-path="url(#22fc09318b)"><g clip-path="url(#9559266b50)"><path fill="#ffffff" d="M -94.804688 349.894531 L -38.878906 252.652344 L 187.511719 382.847656 L 131.585938 480.089844 Z M -94.804688 349.894531 " fill-opacity="1" fill-rule="nonzero"/></g></g></g><g clip-path="url(#f5364a923f)"><g clip-path="url(#aeb35564c7)"><g clip-path="url(#17eb7e012b)"><path fill="#ffffff" d="M 187.503906 -7.425781 L 243.425781 -104.667969 L 469.820312 25.53125 L 413.894531 122.773438 Z M 187.503906 -7.425781 " fill-opacity="1" fill-rule="nonzero"/></g></g></g><g clip-path="url(#faebeac6b4)"><path fill="#ffffff" d="M 29.820312 264.785156 L 345.195312 264.785156 L 345.195312 276.089844 L 29.820312 276.089844 Z M 29.820312 264.785156 " fill-opacity="1" fill-rule="nonzero"/></g><g fill="#ffffff" fill-opacity="1"><g transform="translate(44.805761, 236.405542)"><g><path d="M 8.75 0 L 8.75 -97.171875 L 83.421875 -97.171875 L 83.421875 -79.671875 L 28.875 -79.671875 L 28.875 -57.46875 L 64.828125 -57.46875 L 64.828125 -40.53125 L 28.875 -40.53125 L 28.875 -17.484375 L 83.984375 -17.484375 L 83.984375 0 Z M 8.75 0 "/></g></g></g><g fill="#ffffff" fill-opacity="1"><g transform="translate(134.330084, 236.405542)"><g><path d="M 8.75 0 L 8.75 -97.171875 L 56.21875 -97.171875 C 61.125 -97.171875 65.632812 -96.429688 69.75 -94.953125 C 73.875 -93.472656 77.414062 -91.410156 80.375 -88.765625 C 83.332031 -86.128906 85.644531 -82.957031 87.3125 -79.25 C 88.976562 -75.550781 89.8125 -71.484375 89.8125 -67.046875 C 89.8125 -60.941406 88.078125 -55.484375 84.609375 -50.671875 C 81.140625 -45.859375 76.535156 -42.296875 70.796875 -39.984375 L 92.3125 0 L 69.828125 0 L 50.8125 -37.203125 L 28.875 -37.203125 L 28.875 0 Z M 54.421875 -79.8125 L 28.875 -79.8125 L 28.875 -53.71875 L 54.421875 -53.71875 C 58.953125 -53.71875 62.582031 -54.921875 65.3125 -57.328125 C 68.039062 -59.734375 69.40625 -62.878906 69.40625 -66.765625 C 69.40625 -70.648438 68.039062 -73.796875 65.3125 -76.203125 C 62.582031 -78.609375 58.953125 -79.8125 54.421875 -79.8125 Z M 54.421875 -79.8125 "/></g></g></g><g fill="#ffffff" fill-opacity="1"><g transform="translate(228.573532, 236.405542)"><g><path d="M -0.5625 0 L 39.421875 -97.171875 L 62.75 -97.171875 L 102.171875 0 L 80.375 0 L 70.515625 -25.546875 L 30.40625 -25.546875 L 20.40625 0 Z M 36.640625 -41.640625 L 64.40625 -41.640625 L 50.671875 -77.453125 Z M 36.640625 -41.640625 "/></g></g></g><g clip-path="url(#111502be71)"><path fill="#ffffff" d="M 29.820312 99.433594 L 345.167969 99.433594 L 345.167969 110.722656 L 29.820312 110.722656 Z M 29.820312 99.433594 " fill-opacity="1" fill-rule="nonzero"/></g><g clip-path="url(#34e5afeddf)"><path fill="#ffffff" d="M 29.816406 275.925781 L 29.816406 99.4375 L 41.117188 99.4375 L 41.117188 275.925781 Z M 29.816406 275.925781 " fill-opacity="1" fill-rule="nonzero"/></g><g clip-path="url(#b9d11174bf)"><path fill="#ffffff" d="M 333.875 275.40625 L 333.875 98.917969 L 345.175781 98.917969 L 345.175781 275.40625 Z M 333.875 275.40625 " fill-opacity="1" fill-rule="nonzero"/></g></svg>